<?xml version="1.0" encoding="UTF-8" standalone="no"?>
<svg
   xmlns:dc="http://purl.org/dc/elements/1.1/"
   xmlns:cc="http://creativecommons.org/ns#"
   xmlns:rdf="http://www.w3.org/1999/02/22-rdf-syntax-ns#"
   xmlns:svg="http://www.w3.org/2000/svg"
   xmlns="http://www.w3.org/2000/svg"
   xmlns:xlink="http://www.w3.org/1999/xlink"
   xml:space="preserve"
   viewBox="0 0 499.99999 499.99999"
   height="500"
   width="500"
   y="0px"
   x="0px"
   id="Capa_1"
   version="1.1"><metadata
   id="metadata956"><rdf:RDF><cc:Work
       rdf:about=""><dc:format>image/svg+xml</dc:format><dc:type
         rdf:resource="http://purl.org/dc/dcmitype/StillImage" /><dc:title></dc:title></cc:Work></rdf:RDF></metadata><defs
   id="defs954"><linearGradient
     id="linearGradient962"><stop
       id="stop958"
       offset="0"
       style="stop-color:#1800c8;stop-opacity:1" /><stop
       id="stop960"
       offset="1"
       style="stop-color:#7e70ee;stop-opacity:1" /></linearGradient><radialGradient
     gradientUnits="userSpaceOnUse"
     gradientTransform="matrix(1,0,0,1.3248888,0,-81.222196)"
     r="186.68047"
     fy="250"
     fx="250"
     cy="250"
     cx="250"
     id="radialGradient1056"
     xlink:href="#linearGradient962" /></defs>
<path
   id="marker-5"
   d="m 249.99805,2.6691497 c -100.482,0 -181.953128,81.4711403 -181.953128,181.9531303 0,100.482 151.630078,303.25781 181.955078,303.25781 30.326,0 181.95508,-202.77581 181.95508,-303.25781 0,-100.48199 -81.47403,-181.9531303 -181.95703,-181.9531303 z"
   style="fill:#ffffff;fill-opacity:1;stroke:none;stroke-width:9.44881916;stroke-miterlimit:4;stroke-dasharray:none;stroke-opacity:1" /><path
   id="marker"
   d="m 249.99902,7.3935593 c -100.482,0 -181.955074,81.4730777 -181.955074,181.9550707 0,100.482 151.632024,303.25781 181.957024,303.25781 30.326,0 181.95508,-202.77581 181.95508,-303.25781 0,-100.481993 -81.47403,-181.9550707 -181.95703,-181.9550707 z m 0.002,32.8398437 a 150,150 0 0 1 150,149.999987 150,150 0 0 1 -150,150 150,150 0 0 1 -149.99999,-150 150,150 0 0 1 149.99994,-149.999987 z"
   style="fill:url(#radialGradient1056);fill-opacity:1;stroke:#2715b3;stroke-width:9.4488189;stroke-miterlimit:4;stroke-dasharray:none;stroke-opacity:1" />
<g
   transform="translate(0,14.788002)"
   id="g921">
</g>
<g
   transform="translate(0,14.788002)"
   id="g923">
</g>
<g
   transform="translate(0,14.788002)"
   id="g925">
</g>
<g
   transform="translate(0,14.788002)"
   id="g927">
</g>
<g
   transform="translate(0,14.788002)"
   id="g929">
</g>
<g
   transform="translate(0,14.788002)"
   id="g931">
</g>
<g
   transform="translate(0,14.788002)"
   id="g933">
</g>
<g
   transform="translate(0,14.788002)"
   id="g935">
</g>
<g
   transform="translate(0,14.788002)"
   id="g937">
</g>
<g
   transform="translate(0,14.788002)"
   id="g939">
</g>
<g
   transform="translate(0,14.788002)"
   id="g941">
</g>
<g
   transform="translate(0,14.788002)"
   id="g943">
</g>
<g
   transform="translate(0,14.788002)"
   id="g945">
</g>
<g
   transform="translate(0,14.788002)"
   id="g947">
</g>
<g
   transform="translate(0,14.788002)"
   id="g949">
</g>
<path
   style="fill:#1800c8;fill-opacity:1;stroke-width:4.44876719"
   id="bus"
   d="m 178.81973,228.53862 c 0,7.87432 3.47004,14.85888 8.89753,19.75253 v 15.83761 c 0,4.89364 4.00389,8.89753 8.89754,8.89753 h 8.89753 c 4.93813,0 8.89753,-4.00389 8.89753,-8.89753 v -8.89754 h 71.18028 v 8.89754 c 0,4.89364 3.9594,8.89753 8.89753,8.89753 h 8.89754 c 4.89364,0 8.89753,-4.00389 8.89753,-8.89753 v -15.83761 c 5.4275,-4.89365 8.89753,-11.87821 8.89753,-19.75253 v -88.97534 c 0,-31.14137 -31.85317,-35.59014 -71.18027,-35.59014 -39.3271,0 -71.18027,4.44877 -71.18027,35.59014 z m 31.14137,8.89753 c -7.38496,0 -13.3463,-5.96134 -13.3463,-13.3463 0,-7.38495 5.96134,-13.3463 13.3463,-13.3463 7.38495,0 13.3463,5.96135 13.3463,13.3463 0,7.38496 -5.96135,13.3463 -13.3463,13.3463 z m 80.0778,0 c -7.38495,0 -13.3463,-5.96134 -13.3463,-13.3463 0,-7.38495 5.96135,-13.3463 13.3463,-13.3463 7.38496,0 13.34631,5.96135 13.34631,13.3463 0,7.38496 -5.96135,13.3463 -13.34631,13.3463 z m 13.34631,-53.3852 H 196.6148 v -44.48767 h 106.77041 z" /><g
   id="bearing"><g
     id="use8987"><rect
       style="opacity:1;fill:none;fill-opacity:1;fill-rule:evenodd;stroke:none;stroke-width:9.44881916;stroke-linecap:round;stroke-linejoin:miter;stroke-miterlimit:4;stroke-dasharray:none;stroke-dashoffset:0;stroke-opacity:1"
       id="rect9037"
       width="135.93488"
       height="364.38101"
       x="182.03256"
       y="8.2441969" /><g
       id="g9041"
       transform="matrix(0,-3.4222421,3.4222421,0,217.4887,104.84897)"
       style="fill:#1800c8;fill-opacity:1">
	<polygon
   points="4.5,13.604 8.644,9.5 4.5,5.396 7.424,2.5 14.5,9.493 14.492,9.501 14.5,9.508 7.424,16.5 "
   id="polygon9039"
   style="fill:#1800c8;fill-opacity:1" />
</g></g><rect
     style="opacity:1;fill:none;fill-opacity:1;fill-rule:evenodd;stroke:none;stroke-width:9.44881916;stroke-linecap:round;stroke-linejoin:miter;stroke-miterlimit:4;stroke-dasharray:none;stroke-dashoffset:0;stroke-opacity:1"
     id="rect1058"
     width="135.93488"
     height="364.38101"
     x="182.03256"
     y="8.2441969" /><g
     id="right_arrow"
     transform="matrix(0,-3.4222421,3.4222421,0,217.4887,104.84897)"
     style="fill:#1800c8;fill-opacity:1">
	<polygon
   points="7.424,16.5 4.5,13.604 8.644,9.5 4.5,5.396 7.424,2.5 14.5,9.493 14.492,9.501 14.5,9.508 "
   id="polygon1160"
   style="fill:#1800c8;fill-opacity:1" />
</g></g></svg>