<?xml version="1.0" encoding="UTF-8" standalone="no"?>
<svg
   xmlns:dc="http://purl.org/dc/elements/1.1/"
   xmlns:cc="http://creativecommons.org/ns#"
   xmlns:rdf="http://www.w3.org/1999/02/22-rdf-syntax-ns#"
   xmlns:svg="http://www.w3.org/2000/svg"
   xmlns="http://www.w3.org/2000/svg"
   version="1.1"
   id="svg2"
   height="22"
   width="22">
  <defs
     id="defs4" />
  <metadata
     id="metadata7">
    <rdf:RDF>
      <cc:Work
         rdf:about="">
        <dc:format>image/svg+xml</dc:format>
        <dc:type
           rdf:resource="http://purl.org/dc/dcmitype/StillImage" />
        <dc:title></dc:title>
      </cc:Work>
    </rdf:RDF>
  </metadata>
  <g
     transform="translate(-347.64286,-417.00504)"
     id="layer1">
    <path
       transform="matrix(0.06111353,0,0,0.06111353,336.73887,401.83419)"
       d="M 534.28571,429.50504 A 177.14285,177.14285 0 0 1 357.14285,606.64789 177.14285,177.14285 0 0 1 180,429.50504 177.14285,177.14285 0 0 1 357.14285,252.36218 177.14285,177.14285 0 0 1 534.28571,429.50504 Z"
       id="path2987-2"
       style="fill:#ffffff;fill-opacity:1;fill-rule:evenodd;stroke:none" />
    <path
       transform="matrix(0.05362903,0,0,0.05362903,339.37859,404.95587)"
       d="M 534.28571,429.50504 A 177.14285,177.14285 0 0 1 357.14285,606.64789 177.14285,177.14285 0 0 1 180,429.50504 177.14285,177.14285 0 0 1 357.14285,252.36218 177.14285,177.14285 0 0 1 534.28571,429.50504 Z"
       id="path2987"
       style="fill:#ababab;fill-opacity:1;fill-rule:evenodd;stroke:none" />
    <path
       id="path3824"
       d="m 357.44369,430.14837 -2.78584,-2.78585 -1.6646,1.70335 4.40442,4.58056 7.8246,-8.1468 -1.79505,-1.84109 z"
       style="fill:#ffffff;fill-opacity:1;stroke:none" />
  </g>
</svg>
