<?xml version="1.0" encoding="UTF-8" standalone="no"?>
<svg
   xmlns:dc="http://purl.org/dc/elements/1.1/"
   xmlns:cc="http://creativecommons.org/ns#"
   xmlns:rdf="http://www.w3.org/1999/02/22-rdf-syntax-ns#"
   xmlns:svg="http://www.w3.org/2000/svg"
   xmlns="http://www.w3.org/2000/svg"
   xmlns:sodipodi="http://sodipodi.sourceforge.net/DTD/sodipodi-0.dtd"
   xmlns:inkscape="http://www.inkscape.org/namespaces/inkscape"
   version="1.0"
   width="400"
   height="400"
   id="svg2"
   sodipodi:docname="Snow_flake.svg"
   inkscape:version="0.92.4 (unknown)">
  <metadata
     id="metadata3779">
    <rdf:RDF>
      <cc:Work
         rdf:about="">
        <dc:format>image/svg+xml</dc:format>
        <dc:type
           rdf:resource="http://purl.org/dc/dcmitype/StillImage" />
        <dc:title></dc:title>
      </cc:Work>
    </rdf:RDF>
  </metadata>
  <sodipodi:namedview
     pagecolor="#ffffff"
     bordercolor="#666666"
     borderopacity="1"
     objecttolerance="10"
     gridtolerance="10"
     guidetolerance="10"
     inkscape:pageopacity="0"
     inkscape:pageshadow="2"
     inkscape:window-width="1366"
     inkscape:window-height="704"
     id="namedview3777"
     showgrid="false"
     inkscape:zoom="1"
     inkscape:cx="198.5"
     inkscape:cy="205.5"
     inkscape:window-x="0"
     inkscape:window-y="27"
     inkscape:window-maximized="1"
     inkscape:current-layer="svg2" />
  <defs
     id="defs6" />
  <path
     d="m 184.40625,36.578125 v 40.71875 l -30.59375,-17.6875 -15.53125,26.8125 46.125,26.718755 v 60.09374 l -51.8125,-29.9375 -0.0937,-53.531245 -31,0.0625 0.0625,35.562505 -35.375,-20.4375 -15.5,26.84374 35.28125,20.375 -30.625,17.625 15.4375,26.875 46.21875,-26.59375 52,30.03125 -51.8125,29.90625 -46.40625,-26.6875 -15.4375,26.875 30.8125,17.75 -35.375,20.40625 15.5,26.84375 35.28125,-20.375 -0.0625,35.34375 31,0.0625 0.0937,-53.3125 52,-30 v 59.8125 l -46.3125,26.84375 15.53125,26.8125 30.78125,-17.8125 v 40.84375 h 31 v -40.71875 l 30.59375,17.6875 15.53125,-26.8125 -46.125,-26.71875 v -60.09375 l 51.8125,29.9375 0.0937,53.53125 31,-0.0625 -0.0625,-35.5625 35.375,20.4375 15.5,-26.84375 -35.28125,-20.375 30.625,-17.625 -15.4375,-26.875 -46.1875,26.59375 -52.03125,-30.03125 51.84375,-29.9375 46.375,26.71875 15.4375,-26.875 -30.8125,-17.75 35.375,-20.40625 -15.5,-26.84374 -35.28125,20.375 0.0625,-35.343755 -31,-0.0625 -0.0937,53.312495 -52,30 v -59.81249 l 46.3125,-26.843755 -15.53125,-26.8125 -30.78125,17.8125 v -40.84375 z"
     id="rect2991"
     style="fill:#1b4276;fill-opacity:1;stroke:none"
     inkscape:connector-curvature="0" />
</svg>
